<?xml version="1.0" encoding="UTF-8"?>
<!-- Generator: Adobe Illustrator 27.1.1, SVG Export Plug-In . SVG Version: 6.00 Build 0)  -->
<svg version="1.1" id="Layer_1" xmlns="http://www.w3.org/2000/svg" xmlns:xlink="http://www.w3.org/1999/xlink" x="0px" y="0px" viewBox="0 0 98.4 96" style="enable-background:new 0 0 98.4 96;" xml:space="preserve">
<style type="text/css">
	.st0{fill:url(#SVGID_1_);}
	.st1{fill:url(#SVGID_00000039814208612610775560000014998806694199707791_);}
	.st2{fill:url(#SVGID_00000064313782382337450520000007641150753324967074_);}
	.st3{fill:url(#SVGID_00000103237976760877392270000008207834021948494736_);}
	.st4{fill:url(#SVGID_00000009555389488869558850000011166049141817281409_);}
	.st5{fill:url(#SVGID_00000002369404547279222330000012431362862516544909_);}
	.st6{fill:url(#SVGID_00000175284663882677187750000013898099715370544318_);}
	.st7{fill:url(#SVGID_00000010295479312551568880000017426599135619425950_);}
	.st8{fill:url(#SVGID_00000158726661857515385540000013147739718355158436_);}
	.st9{fill:url(#SVGID_00000134217324077524504300000013281847288766210995_);}
	.st10{fill:url(#SVGID_00000029738957442811207430000009184927864696620714_);}
	.st11{fill:url(#SVGID_00000090989910209122414780000013813074699291433600_);}
	.st12{fill:url(#SVGID_00000065052873287871377720000013375260900888073120_);}
	.st13{fill:url(#SVGID_00000176761501109860516720000007391508471137479600_);}
	.st14{fill:url(#SVGID_00000139974670691543297380000014150795448339768967_);}
	.st15{fill:url(#SVGID_00000163055738959229297240000003228775575334288280_);}
	.st16{fill:url(#SVGID_00000016038001491015505770000017715044372767430540_);}
	.st17{fill:url(#SVGID_00000119096634839866111260000012964153474047697579_);}
	.st18{fill:url(#SVGID_00000106859942298465439680000006885568682969867137_);}
	.st19{fill:#57C8E1;}
</style>
<linearGradient id="SVGID_1_" gradientUnits="userSpaceOnUse" x1="25.6066" y1="51.9791" x2="42.6366" y2="71.5761" gradientTransform="matrix(1 0 0 -1 0 98)">
	<stop offset="0" style="stop-color:#0089B6"/>
	<stop offset="9.300000e-02" style="stop-color:#0094BD"/>
	<stop offset="0.248" style="stop-color:#00A3C8"/>
	<stop offset="0.41" style="stop-color:#17B1D1"/>
	<stop offset="0.582" style="stop-color:#42BCD8"/>
	<stop offset="0.769" style="stop-color:#52C5DE"/>
	<stop offset="1" style="stop-color:#57C8E1"/>
</linearGradient>
<path class="st0" d="M58.4,55.2c-6.1,7.3-15.7,5.4-27.7-4.6c-6.9-5.9-11.2-10.9-13.9-16C10.4,22.3,13.6,13,15.3,11  c0.7-0.8,1.6-0.6,2-0.2c0.4,0.4,7.3,8.9,7.9,9.5c0.5,0.6,1.4,0.8,2.2,0.3c0.8-0.5,3.1-1.8,3.9-2.4c0.9-0.5,2-0.3,2.6,0.5  c0.8,1.2,3.2,5.6,5.3,9.5"/>
<linearGradient id="SVGID_00000007416204290659772060000008628738002962976678_" gradientUnits="userSpaceOnUse" x1="32.1055" y1="29.5383" x2="23.6825" y2="54.0073" gradientTransform="matrix(1 0 0 -1 0 98)">
	<stop offset="0" style="stop-color:#46812B"/>
	<stop offset="7.400000e-02" style="stop-color:#518C2F"/>
	<stop offset="0.232" style="stop-color:#66A035"/>
	<stop offset="0.398" style="stop-color:#76B039"/>
	<stop offset="0.573" style="stop-color:#82BB3C"/>
	<stop offset="0.764" style="stop-color:#89C33E"/>
	<stop offset="1" style="stop-color:#8DC63F"/>
</linearGradient>
<path style="fill:url(#SVGID_00000007416204290659772060000008628738002962976678_);" d="M53,45.9c3.2,9-0.7,15.4-10.9,19.1  c-8.5,3.1-15,4.4-20.8,4.2C7.5,68.6,1,61.2,0.1,58.8c-0.3-1,0.3-1.6,0.8-1.8c0.5-0.2,11.4-1.9,12.1-2.1c0.8-0.1,1.3-0.8,1.3-1.7  s-0.1-3.5-0.1-4.6c-0.1-1,0.7-1.9,1.7-2c1.4-0.1,6.5,0,10.9,0.2"/>
<linearGradient id="SVGID_00000143585327508344484520000003779891425014033073_" gradientUnits="userSpaceOnUse" x1="58.4934" y1="24.993" x2="33.004" y2="29.9497" gradientTransform="matrix(1 0 0 -1 0 98)">
	<stop offset="0" style="stop-color:#C74A1B"/>
	<stop offset="0.197" style="stop-color:#D7591E"/>
	<stop offset="0.43" style="stop-color:#E5651F"/>
	<stop offset="0.685" style="stop-color:#EE6C21"/>
	<stop offset="1" style="stop-color:#F37021"/>
</linearGradient>
<path style="fill:url(#SVGID_00000143585327508344484520000003779891425014033073_);" d="M49.4,43.6c9.4,1.7,13,8.3,11.1,19  c-1.6,8.9-3.8,15.3-6.9,20.1C46.2,94.4,36.6,96.3,34,95.9c-1-0.2-1.3-1-1.2-1.6c0.1-0.5,4-10.8,4.3-11.6c0.2-0.8-0.1-1.6-0.8-2  c-0.8-0.5-3.1-1.7-4-2.2c-0.9-0.5-1.3-1.6-0.8-2.5c0.6-1.3,3.2-5.6,5.6-9.3"/>
<linearGradient id="SVGID_00000022548318473160777790000000109664621963195323_" gradientUnits="userSpaceOnUse" x1="75.6262" y1="45.5559" x2="58.5292" y2="25.8799" gradientTransform="matrix(1 0 0 -1 0 98)">
	<stop offset="0" style="stop-color:#950042"/>
	<stop offset="0.119" style="stop-color:#AB0051"/>
	<stop offset="0.269" style="stop-color:#C20060"/>
	<stop offset="0.427" style="stop-color:#D3006C"/>
	<stop offset="0.594" style="stop-color:#E00174"/>
	<stop offset="0.775" style="stop-color:#E80279"/>
	<stop offset="1" style="stop-color:#ED037C"/>
</linearGradient>
<path style="fill:url(#SVGID_00000022548318473160777790000000109664621963195323_);" d="M45.6,45.6c6.1-7.3,13.7-7.1,22-0.1  c6.9,5.8,11.3,11,14,16.1c6.5,12.3,3.3,21.6,1.6,23.6c-0.7,0.8-1.6,0.6-2,0.2c-0.4-0.4-7.3-8.9-7.9-9.5c-0.5-0.6-1.4-0.8-2.2-0.3  c-0.8,0.5-3.1,1.8-3.9,2.4c-0.9,0.5-2,0.3-2.6-0.5c-0.8-1.2-3.2-5.6-5.3-9.5"/>
<linearGradient id="SVGID_00000132797929573838891560000004261369775684093832_" gradientUnits="userSpaceOnUse" x1="66.2101" y1="70.8136" x2="74.7501" y2="46.0046" gradientTransform="matrix(1 0 0 -1 0 98)">
	<stop offset="0" style="stop-color:#9E0040"/>
	<stop offset="7.400000e-02" style="stop-color:#AB184D"/>
	<stop offset="0.232" style="stop-color:#C33B67"/>
	<stop offset="0.398" style="stop-color:#D6537D"/>
	<stop offset="0.573" style="stop-color:#E4638E"/>
	<stop offset="0.764" style="stop-color:#ED6E99"/>
	<stop offset="1" style="stop-color:#F1729E"/>
</linearGradient>
<path style="fill:url(#SVGID_00000132797929573838891560000004261369775684093832_);" d="M45.3,49.7c-3.2-9,0.7-15.4,10.9-19.1  c8.5-3.1,15.2-4,20.9-3.8c13.9,0.5,20.4,8,21.2,10.4c0.3,1-0.3,1.6-0.8,1.8c-0.5,0.2-11.4,1.9-12.1,2.1c-0.8,0.1-1.3,0.8-1.3,1.7  s0.1,3.5,0.1,4.6c0.1,1-0.7,1.9-1.7,2c-1.4,0.1-6.5,0-10.9-0.2"/>
<linearGradient id="SVGID_00000113348885111467279690000013753762179824429962_" gradientUnits="userSpaceOnUse" x1="40.0769" y1="75.0836" x2="65.4667" y2="70.1469" gradientTransform="matrix(1 0 0 -1 0 98)">
	<stop offset="0" style="stop-color:#570861"/>
	<stop offset="7.400000e-02" style="stop-color:#61196B"/>
	<stop offset="0.232" style="stop-color:#732F7D"/>
	<stop offset="0.398" style="stop-color:#823F8C"/>
	<stop offset="0.573" style="stop-color:#8D4A96"/>
	<stop offset="0.764" style="stop-color:#94509D"/>
	<stop offset="1" style="stop-color:#9853A1"/>
</linearGradient>
<path style="fill:url(#SVGID_00000113348885111467279690000013753762179824429962_);" d="M49.2,52.3c-9.4-1.7-13.1-8.3-11.1-19  c1.6-8.9,3.6-15.1,6.8-20.1C52.2,1.5,61.9-0.4,64.4,0.1c1,0.2,1.3,1,1.2,1.6c-0.1,0.5-4,10.8-4.3,11.6c-0.2,0.8,0.1,1.6,0.8,2  c0.8,0.5,3.1,1.7,4,2.2c0.9,0.5,1.3,1.6,0.8,2.5c-0.6,1.3-3.2,5.6-5.6,9.3"/>
<linearGradient id="SVGID_00000018199779526204319110000015351270637588292778_" gradientUnits="userSpaceOnUse" x1="61.2632" y1="72.6103" x2="58.8312" y2="44.7973" gradientTransform="matrix(1 0 0 -1 0 98)">
	<stop offset="9.800000e-02" style="stop-color:#F8B7C9"/>
	<stop offset="0.159" style="stop-color:#F6A8BF"/>
	<stop offset="0.278" style="stop-color:#F491B0"/>
	<stop offset="0.395" style="stop-color:#F280A6"/>
	<stop offset="0.506" style="stop-color:#F276A0"/>
	<stop offset="0.607" style="stop-color:#F1729E"/>
</linearGradient>
<path style="fill:url(#SVGID_00000018199779526204319110000015351270637588292778_);" d="M56.5,53C54.8,42.3,61.1,31.5,72,27.5  c1.4-0.5,3.2-0.8,5.1-0.8c-5.8-0.2-13,0.8-21.4,3.8c-10.2,3.6-14.1,10.1-10.9,19.1"/>
<linearGradient id="SVGID_00000139259723753185427650000001950057772095932335_" gradientUnits="userSpaceOnUse" x1="35.7152" y1="71.7367" x2="58.5864" y2="55.7169" gradientTransform="matrix(1 0 0 -1 0 98)">
	<stop offset="9.800000e-02" style="stop-color:#C29FCA"/>
	<stop offset="0.583" style="stop-color:#9853A1"/>
</linearGradient>
<path style="fill:url(#SVGID_00000139259723753185427650000001950057772095932335_);" d="M57.2,44.2C47.1,40.4,40.8,29.4,42.9,18  c0.3-1.5,0.9-3.2,1.9-4.8c-3.1,4.9-5.8,11.6-7.4,20.4c-1.9,10.7,1.7,17.3,11.1,19"/>
<linearGradient id="SVGID_00000018236425269953852340000004304652062313130635_" gradientUnits="userSpaceOnUse" x1="74.8387" y1="50.902" x2="49.5249" y2="39.0942" gradientTransform="matrix(1 0 0 -1 0 98)">
	<stop offset="9.800000e-02" style="stop-color:#F599B5"/>
	<stop offset="0.137" style="stop-color:#F38CAD"/>
	<stop offset="0.237" style="stop-color:#F16D9A"/>
	<stop offset="0.336" style="stop-color:#EF4F8C"/>
	<stop offset="0.432" style="stop-color:#EE3283"/>
	<stop offset="0.524" style="stop-color:#ED167D"/>
	<stop offset="0.607" style="stop-color:#ED037C"/>
</linearGradient>
<path style="fill:url(#SVGID_00000018236425269953852340000004304652062313130635_);" d="M48.5,56.8c8.4-6.9,21-6.8,29.9,0.7  c1.2,1,2.3,2.4,3.2,4c-2.7-5.1-7.1-10.8-14-16.7c-8.3-7-15.9-7.2-22,0.1"/>
<linearGradient id="SVGID_00000106847387574392524040000011867470410022227126_" gradientUnits="userSpaceOnUse" x1="62.7488" y1="28.263" x2="39.8769" y2="44.2836" gradientTransform="matrix(1 0 0 -1 0 98)">
	<stop offset="9.800000e-02" style="stop-color:#FAB383"/>
	<stop offset="0.137" style="stop-color:#F9A975"/>
	<stop offset="0.237" style="stop-color:#F79457"/>
	<stop offset="0.336" style="stop-color:#F5843D"/>
	<stop offset="0.432" style="stop-color:#F4792C"/>
	<stop offset="0.524" style="stop-color:#F37223"/>
	<stop offset="0.607" style="stop-color:#F37021"/>
</linearGradient>
<path style="fill:url(#SVGID_00000106847387574392524040000011867470410022227126_);" d="M41.2,51.8C51.4,55.6,57.6,66.6,55.5,78  c-0.3,1.5-0.9,3.2-1.9,4.8c3.1-4.9,5.8-11.6,7.4-20.4c1.9-10.7-1.7-17.3-11.1-19"/>
<linearGradient id="SVGID_00000067937214939175606080000002804646869915404686_" gradientUnits="userSpaceOnUse" x1="36.2909" y1="39.1058" x2="59.1637" y2="23.084" gradientTransform="matrix(1 0 0 -1 0 98)">
	<stop offset="9.800000e-02" style="stop-color:#FAB383"/>
	<stop offset="0.137" style="stop-color:#F9A975"/>
	<stop offset="0.237" style="stop-color:#F79457"/>
	<stop offset="0.336" style="stop-color:#F5843D"/>
	<stop offset="0.432" style="stop-color:#F4792C"/>
	<stop offset="0.524" style="stop-color:#F37223"/>
	<stop offset="0.607" style="stop-color:#F37021"/>
</linearGradient>
<path style="fill:url(#SVGID_00000067937214939175606080000002804646869915404686_);" d="M41.5,51.6l-0.2,0.2  C51.4,55.7,57.6,66.6,55.5,78c-0.3,1.5-0.9,3.2-1.9,4.8c0.2-0.2,0.3-0.5,0.5-0.7c0.8-1.5,1.4-2.9,1.6-4.3  C57.8,66.3,51.6,55.4,41.5,51.6z"/>
<linearGradient id="SVGID_00000099638843107458627920000003187482733079792551_" gradientUnits="userSpaceOnUse" x1="37.2588" y1="27.3898" x2="39.6908" y2="55.2038" gradientTransform="matrix(1 0 0 -1 0 98)">
	<stop offset="9.800000e-02" style="stop-color:#C4DF9B"/>
	<stop offset="0.137" style="stop-color:#BDDB8F"/>
	<stop offset="0.237" style="stop-color:#ACD372"/>
	<stop offset="0.336" style="stop-color:#9ECD59"/>
	<stop offset="0.432" style="stop-color:#95C949"/>
	<stop offset="0.524" style="stop-color:#8FC741"/>
	<stop offset="0.607" style="stop-color:#8DC63F"/>
</linearGradient>
<path style="fill:url(#SVGID_00000099638843107458627920000003187482733079792551_);" d="M42,43c1.7,10.7-4.6,21.6-15.5,25.5  c-1.4,0.5-3.2,0.8-5.1,0.8c5.8,0.2,13-0.8,21.4-3.8c10.2-3.6,14.1-10.1,10.9-19.1"/>
<linearGradient id="SVGID_00000001639896934990494880000010870385407666088368_" gradientUnits="userSpaceOnUse" x1="33.3942" y1="55.774" x2="30.9622" y2="27.961" gradientTransform="matrix(1 0 0 -1 0 98)">
	<stop offset="9.800000e-02" style="stop-color:#C4DF9B"/>
	<stop offset="0.137" style="stop-color:#BDDB8F"/>
	<stop offset="0.237" style="stop-color:#ACD372"/>
	<stop offset="0.336" style="stop-color:#9ECD59"/>
	<stop offset="0.432" style="stop-color:#95C949"/>
	<stop offset="0.524" style="stop-color:#8FC741"/>
	<stop offset="0.607" style="stop-color:#8DC63F"/>
</linearGradient>
<path style="fill:url(#SVGID_00000001639896934990494880000010870385407666088368_);" d="M42.3,43.1L42,43  c1.7,10.7-4.6,21.6-15.5,25.5c-1.4,0.5-3.2,0.8-5.1,0.8h0.8c1.7,0,3.2-0.3,4.6-0.8C37.7,64.6,44,53.7,42.3,43.1L42.3,43.1z"/>
<linearGradient id="SVGID_00000067193954506142604520000003084243329183504309_" gradientUnits="userSpaceOnUse" x1="24.9543" y1="46.1341" x2="51.0103" y2="58.289" gradientTransform="matrix(1 0 0 -1 0 98)">
	<stop offset="4.900000e-02" style="stop-color:#B0E1EE"/>
	<stop offset="0.337" style="stop-color:#57C8E1"/>
</linearGradient>
<path style="fill:url(#SVGID_00000067193954506142604520000003084243329183504309_);" d="M49.9,39.3c-8.4,6.9-20.9,6.8-29.8-0.7  c-1.2-1-2.3-2.4-3.2-4c2.7,5.1,7.1,10.8,14,16.7c11.9,10.1,21.5,11.9,27.7,4.6"/>
<linearGradient id="SVGID_00000065754592948405175250000013987690001458770829_" gradientUnits="userSpaceOnUse" x1="46.2195" y1="66.4968" x2="20.9095" y2="54.6908" gradientTransform="matrix(1 0 0 -1 0 98)">
	<stop offset="0" style="stop-color:#B0E1EE"/>
	<stop offset="0.38" style="stop-color:#57C8E1"/>
</linearGradient>
<path style="fill:url(#SVGID_00000065754592948405175250000013987690001458770829_);" d="M50,39.6l-0.1-0.3  c-8.4,6.8-20.9,6.8-29.8-0.7c-1.2-1-2.3-2.4-3.2-4c0.1,0.2,0.3,0.5,0.4,0.8c0.9,1.4,1.9,2.7,3,3.6C29,46.4,41.6,46.4,50,39.6z"/>
<linearGradient id="SVGID_00000115511771882932223200000014766580702249393317_" gradientUnits="userSpaceOnUse" x1="62.1774" y1="60.8988" x2="39.3046" y2="76.9207" gradientTransform="matrix(1 0 0 -1 0 98)">
	<stop offset="9.800000e-02" style="stop-color:#C29FCA"/>
	<stop offset="0.583" style="stop-color:#9853A1"/>
</linearGradient>
<path style="fill:url(#SVGID_00000115511771882932223200000014766580702249393317_);" d="M57,44.4l0.2-0.2  C47.1,40.3,40.8,29.4,42.9,18c0.3-1.5,0.9-3.2,1.9-4.8c-0.2,0.2-0.3,0.5-0.5,0.7c-0.8,1.5-1.4,2.9-1.6,4.3  C40.7,29.7,46.9,40.6,57,44.4z"/>
<linearGradient id="SVGID_00000172418533500814399490000005774972857842554503_" gradientUnits="userSpaceOnUse" x1="65.0717" y1="44.2286" x2="67.5037" y2="72.0416" gradientTransform="matrix(1 0 0 -1 0 98)">
	<stop offset="9.800000e-02" style="stop-color:#F8B7C9"/>
	<stop offset="0.159" style="stop-color:#F6A8BF"/>
	<stop offset="0.278" style="stop-color:#F491B0"/>
	<stop offset="0.395" style="stop-color:#F280A6"/>
	<stop offset="0.506" style="stop-color:#F276A0"/>
	<stop offset="0.607" style="stop-color:#F1729E"/>
</linearGradient>
<path style="fill:url(#SVGID_00000172418533500814399490000005774972857842554503_);" d="M56.2,52.9l0.3,0.1  C54.7,42.3,61.1,31.4,72,27.5c1.4-0.5,3.2-0.8,5.1-0.8h-0.8c-1.7,0-3.2,0.3-4.6,0.8C60.9,31.4,54.5,42.3,56.2,52.9L56.2,52.9z"/>
<linearGradient id="SVGID_00000121968576375331212150000012084735069110213298_" gradientUnits="userSpaceOnUse" x1="52.1678" y1="33.3744" x2="77.4812" y2="45.1819" gradientTransform="matrix(1 0 0 -1 0 98)">
	<stop offset="9.800000e-02" style="stop-color:#F599B5"/>
	<stop offset="0.137" style="stop-color:#F38CAD"/>
	<stop offset="0.237" style="stop-color:#F16D9A"/>
	<stop offset="0.336" style="stop-color:#EF4F8C"/>
	<stop offset="0.432" style="stop-color:#EE3283"/>
	<stop offset="0.524" style="stop-color:#ED167D"/>
	<stop offset="0.607" style="stop-color:#ED037C"/>
</linearGradient>
<path style="fill:url(#SVGID_00000121968576375331212150000012084735069110213298_);" d="M48.4,56.5l0.1,0.3  c8.4-6.8,21-6.8,29.9,0.7c1.2,1,2.3,2.4,3.2,4c-0.1-0.2-0.3-0.5-0.4-0.8c-0.9-1.4-1.9-2.7-2.9-3.6C69.4,49.7,56.9,49.7,48.4,56.5z"/>
<radialGradient id="SVGID_00000036214586981443890850000016281819056459752886_" cx="-711.1982" cy="548.5652" r="1" gradientTransform="matrix(12.147 0 0 -12.143 8694.7754 6694.3267)" gradientUnits="userSpaceOnUse">
	<stop offset="4.900000e-02" style="stop-color:#B0E1EE"/>
	<stop offset="1" style="stop-color:#57C8E1"/>
</radialGradient>
<path style="fill:url(#SVGID_00000036214586981443890850000016281819056459752886_);" d="M58.7,55.6c-4.3,5.1-12,5.7-17.1,1.4  c-5.1-4.3-5.7-12-1.4-17.1c4.3-5.1,12-5.7,17.1-1.4C62.4,42.8,63,50.5,58.7,55.6z"/>
<path class="st19" d="M58.5,55.9c-4.3,5.1-12,5.7-17.1,1.4c-5.1-4.3-5.7-12-1.4-17.1c4.3-5.1,12-5.7,17.1-1.4  C62.2,43.1,62.8,50.7,58.5,55.9z"/>
</svg>