<?xml version="1.0" encoding="UTF-8"?>
<svg fill="none" viewBox="0 0 368 96" xmlns="http://www.w3.org/2000/svg">
<g clip-path="url(#t)">
<path d="m110.15 37.417h3.934v9.658l7-9.658h4.513l-5.901 7.633 6.884 13.302h-4.512l-4.976-9.89-2.95 3.76v6.13h-3.934v-20.935h-0.058zm19.091 0h7.058c5.265 0 7.868 1.966 7.868 6.245 0 2.719-1.389 4.57-3.876 5.263l4.628 9.369h-4.223l-4.05-8.501h-3.587v8.5h-3.876v-20.875h0.058zm7.289 9.137c2.488 0 3.703-0.867 3.703-2.892 0-2.024-1.215-2.891-3.703-2.891h-3.413v5.783h3.413zm12.034-9.137h13.537v3.412h-9.661v4.916h7.058v3.354h-7.058v5.667h10.124v3.586h-14v-20.935zm17.934 0h13.19v3.412h-9.198v4.916h7v3.412h-7v9.195h-3.992v-20.935zm20.422 3.47h-5.496v-3.47h14.926v3.47h-5.496v17.465h-3.992v-17.465h0.058zm12.786-3.355h12.206v1.968h-9.892v6.94h7.347v1.966h-7.347v9.947h-2.314v-20.82zm21.81-0.347c4.917 0 8.215 4.049 8.215 10.7 0 6.65-3.298 10.756-8.215 10.756-4.918 0-8.215-4.106-8.215-10.757 0-6.65 3.297-10.699 8.215-10.699zm0 19.432c3.645 0 5.901-3.123 5.901-8.733s-2.256-8.732-5.901-8.732-5.901 3.123-5.901 8.732c0 5.61 2.256 8.733 5.901 8.733zm11.686-19.085h5.843c5.612 0 8.331 1.504 8.331 5.494 0 2.718-1.446 4.511-4.339 5.32l4.86 9.948h-2.546l-4.57-9.427h-5.323v9.427h-2.256v-20.761zm2.256 1.909v7.518h3.472c4.165 0 6.074-1.041 6.074-3.76 0-3.064-1.793-3.758-5.959-3.758h-3.587zm16.488-1.909h12.265v1.968h-9.951v6.94h7.058v1.966h-7.058v7.98h10.472v1.967h-12.786v-20.82zm16.43 0h3.298l9.546 16.193v-16.193h2.14v20.762h-1.793l-11.05-18.39v18.39h-2.141v-20.761zm20.712 0h2.314v20.762h-2.314v-20.761zm8.041 0h3.298l9.546 16.193v-16.193h2.14v20.762h-1.793l-11.05-18.39v18.39h-2.141v-20.761zm32.687 18.507c-1.273 1.792-3.066 2.602-5.496 2.602-4.918 0-8.157-3.99-8.157-10.641 0-6.94 3.066-10.815 8.215-10.815 3.644 0 6.074 2.025 7.231 6.073l-2.372 0.462c-0.81-3.007-2.43-4.568-4.917-4.568-3.645 0-5.785 3.065-5.785 8.675 0 5.667 2.256 8.848 5.9 8.848 3.009 0 5.034-1.85 5.034-4.974v-1.446h-4.802v-1.965h7.174v10.063h-1.967l-0.058-2.313zm6.827-18.507h12.264v1.968h-9.95v6.94h7.058v1.966h-7.058v7.98h10.471v1.967h-12.785v-20.82zm16.43 0h3.297l9.546 16.193v-16.193h2.141v20.762h-1.794l-11.05-18.39v18.39h-2.14v-20.761z" fill="#fff"/>
<path d="M58.431 55.171c-6.132 7.287-15.678 5.436-27.653-4.626-6.885-5.9-11.224-10.873-13.943-15.962-6.48-12.318-3.24-21.629-1.562-23.595.694-.81 1.562-.578 1.967-.173.405.404 7.348 8.906 7.868 9.484.52.578 1.389.752 2.199.289.752-.463 3.066-1.793 3.876-2.371.867-.52 2.025-.347 2.603.52.752 1.215 3.24 5.61 5.265 9.543" fill="url(#s)"/>
<path d="M52.993 45.918c3.24 8.964-.694 15.44-10.876 19.084-8.505 3.065-14.984 4.395-20.77 4.164C7.463 68.646.983 61.186.116 58.756c-.347-1.04.289-1.619.81-1.792.52-.174 11.396-1.909 12.149-2.082.752-.116 1.33-.81 1.33-1.735s-.058-3.528-.115-4.569c-.058-.983.694-1.908 1.735-1.966 1.446-.058 6.48 0 10.876.231" fill="url(#i)"/>
<path d="M49.406 43.605c9.372 1.677 13.017 8.327 11.108 18.968-1.62 8.906-3.76 15.268-6.885 20.126-7.405 11.74-17.066 13.648-19.612 13.185-1.041-.173-1.273-1.04-1.157-1.619.116-.52 3.992-10.814 4.281-11.566.232-.752-.058-1.62-.81-2.024-.752-.463-3.066-1.735-3.992-2.198-.867-.463-1.272-1.561-.81-2.487.637-1.272 3.24-5.61 5.612-9.31" fill="url(#h)"/>
<path d="M45.588 45.571c6.132-7.286 13.71-7.113 21.984-.115 6.884 5.84 11.281 10.987 14 16.134 6.48 12.26 3.298 21.63 1.62 23.596-.694.81-1.562.578-1.967.173-.405-.405-7.347-8.906-7.868-9.484-.52-.579-1.388-.752-2.198-.29-.752.463-3.067 1.794-3.876 2.372-.868.52-2.025.347-2.604-.52-.752-1.215-3.24-5.61-5.264-9.543" fill="url(#g)"/>
<path d="M45.299 49.735c-3.24-8.964.694-15.44 10.876-19.084 8.504-3.065 15.157-4.049 20.943-3.817 13.884.52 20.364 7.98 21.231 10.41.348 1.04-.289 1.619-.81 1.792-.52.174-11.396 1.909-12.148 2.082-.753.116-1.331.81-1.331 1.735s.058 3.528.116 4.569c.057.983-.695 1.908-1.736 1.966-1.446.058-6.48 0-10.876-.231" fill="url(#f)"/>
<path d="M49.175 52.28c-9.372-1.678-13.075-8.328-11.108-18.97 1.62-8.905 3.645-15.15 6.769-20.067C52.24 1.503 61.902-.405 64.448.058c1.041.173 1.273 1.04 1.157 1.62-.116.52-3.992 10.814-4.281 11.565-.232.752.058 1.62.81 2.024.752.463 3.066 1.735 3.992 2.198.867.463 1.272 1.561.81 2.487-.637 1.272-3.24 5.61-5.612 9.31" fill="url(#e)"/>
<path d="M56.522 53.031c-1.735-10.698 4.628-21.57 15.505-25.503 1.446-.52 3.182-.752 5.09-.752-5.842-.231-12.958.752-21.405 3.817-10.24 3.643-14.116 10.12-10.876 19.084" fill="url(#d)"/>
<path d="M57.216 44.241c-10.124-3.875-16.372-14.805-14.29-26.198.29-1.503.926-3.18 1.91-4.8C41.71 18.16 39.05 24.81 37.43 33.658c-1.909 10.699 1.736 17.291 11.108 18.968" fill="url(#c)"/>
<path d="M48.538 56.79c8.389-6.882 21-6.766 29.852.694 1.157.983 2.257 2.371 3.182 4.049-2.719-5.147-7.116-10.815-14-16.656-8.273-6.997-15.852-7.17-21.984.116" fill="url(#b)"/>
<path d="M41.249 51.76c10.124 3.874 16.372 14.804 14.29 26.197-.29 1.503-.926 3.18-1.91 4.8 3.125-4.916 5.786-11.567 7.406-20.415 1.909-10.699-1.736-17.291-11.108-18.968" fill="url(#a)"/>
<path d="M41.48 51.585l-.231.232c10.124 3.874 16.372 14.805 14.29 26.197-.29 1.504-.926 3.181-1.91 4.8.174-.231.29-.462.463-.694.81-1.503 1.389-2.949 1.62-4.337 2.083-11.45-4.107-22.38-14.232-26.198z" fill="url(#r)"/>
<path d="M42 42.969c1.736 10.698-4.627 21.57-15.504 25.503-1.446.52-3.182.752-5.09.752 5.842.231 12.958-.752 21.405-3.817 10.24-3.643 14.116-10.12 10.876-19.084" fill="url(#q)"/>
<path d="M42.29 43.084l-.29-.057c1.736 10.698-4.627 21.57-15.504 25.503-1.446.52-3.182.752-5.09.752h.81c1.677 0 3.239-.29 4.57-.752 10.876-3.932 17.182-14.805 15.504-25.446z" fill="url(#p)"/>
<path d="M49.868 39.325c-8.388 6.882-20.942 6.767-29.794-.694-1.157-.983-2.256-2.37-3.181-4.048 2.719 5.147 7.115 10.815 14 16.656 11.917 10.12 21.463 11.913 27.653 4.626" fill="url(#o)"/>
<path d="M49.984 39.615l-.116-.29c-8.388 6.825-20.942 6.767-29.794-.694-1.157-.983-2.256-2.37-3.181-4.048.115.232.289.463.404.752.868 1.446 1.852 2.718 2.951 3.586 8.736 7.46 21.348 7.518 29.736.694z" fill="url(#n)"/>
<path d="M56.985 44.414l.231-.23c-10.124-3.876-16.372-14.806-14.29-26.198.29-1.504.926-3.181 1.91-4.8-.174.23-.29.462-.463.694-.81 1.503-1.388 2.949-1.62 4.337-2.082 11.45 4.166 22.38 14.232 26.197z" fill="url(#m)"/>
<path d="M56.175 52.916l.29.057c-1.736-10.698 4.627-21.57 15.504-25.503 1.446-.52 3.182-.752 5.09-.752h-.81c-1.677 0-3.239.29-4.57.752-10.818 3.932-17.182 14.805-15.504 25.446z" fill="url(#l)"/>
<path d="M48.422 56.501l.058.29c8.389-6.825 21-6.767 29.852.693 1.157.983 2.256 2.371 3.182 4.048-.116-.23-.29-.462-.405-.751-.868-1.446-1.851-2.718-2.95-3.586-8.736-7.46-21.29-7.518-29.737-.694z" fill="url(#k)"/>
<path d="m58.663 55.576c-4.34 5.09-11.976 5.725-17.125 1.388-5.09-4.28-5.727-11.971-1.388-17.06 4.339-5.09 11.975-5.726 17.124-1.388 5.091 4.28 5.727 11.97 1.389 17.06z" fill="url(#j)"/>
<path d="m58.489 55.865c-4.34 5.09-11.976 5.725-17.125 1.388-5.09-4.337-5.727-11.971-1.388-17.118 4.339-5.09 11.975-5.725 17.124-1.388 5.091 4.337 5.728 11.971 1.389 17.118z" fill="#57C8E1"/>
</g>
<defs>
<linearGradient id="s" x1="25.595" x2="42.624" y1="46.01" y2="26.413" gradientUnits="userSpaceOnUse">
<stop stop-color="#0089B6" offset="0"/>
<stop stop-color="#0094BD" offset=".093"/>
<stop stop-color="#00A3C8" offset=".248"/>
<stop stop-color="#17B1D1" offset=".41"/>
<stop stop-color="#42BCD8" offset=".582"/>
<stop stop-color="#52C5DE" offset=".769"/>
<stop stop-color="#57C8E1" offset="1"/>
</linearGradient>
<linearGradient id="i" x1="32.114" x2="23.692" y1="68.472" y2="44.003" gradientUnits="userSpaceOnUse">
<stop stop-color="#46812B" offset="0"/>
<stop stop-color="#518C2F" offset=".074"/>
<stop stop-color="#66A035" offset=".232"/>
<stop stop-color="#76B039" offset=".398"/>
<stop stop-color="#82BB3C" offset=".573"/>
<stop stop-color="#89C33E" offset=".764"/>
<stop stop-color="#8DC63F" offset="1"/>
</linearGradient>
<linearGradient id="h" x1="58.5" x2="33.009" y1="73.039" y2="68.082" gradientUnits="userSpaceOnUse">
<stop stop-color="#C74A1B" offset="0"/>
<stop stop-color="#D7591E" offset=".197"/>
<stop stop-color="#E5651F" offset=".43"/>
<stop stop-color="#EE6C21" offset=".685"/>
<stop stop-color="#F37021" offset="1"/>
</linearGradient>
<linearGradient id="g" x1="75.61" x2="58.513" y1="52.405" y2="72.081" gradientUnits="userSpaceOnUse">
<stop stop-color="#950042" offset="0"/>
<stop stop-color="#AB0051" offset=".119"/>
<stop stop-color="#C20060" offset=".269"/>
<stop stop-color="#D3006C" offset=".427"/>
<stop stop-color="#E00174" offset=".594"/>
<stop stop-color="#E80279" offset=".775"/>
<stop stop-color="#ED037C" offset="1"/>
</linearGradient>
<linearGradient id="f" x1="66.236" x2="74.775" y1="27.189" y2="51.998" gradientUnits="userSpaceOnUse">
<stop stop-color="#9E0040" offset="0"/>
<stop stop-color="#AB184D" offset=".074"/>
<stop stop-color="#C33B67" offset=".232"/>
<stop stop-color="#D6537D" offset=".398"/>
<stop stop-color="#E4638E" offset=".573"/>
<stop stop-color="#ED6E99" offset=".764"/>
<stop stop-color="#F1729E" offset="1"/>
</linearGradient>
<linearGradient id="e" x1="40.07" x2="65.476" y1="22.919" y2="27.859" gradientUnits="userSpaceOnUse">
<stop stop-color="#570861" offset="0"/>
<stop stop-color="#61196B" offset=".074"/>
<stop stop-color="#732F7D" offset=".232"/>
<stop stop-color="#823F8C" offset=".398"/>
<stop stop-color="#8D4A96" offset=".573"/>
<stop stop-color="#94509D" offset=".764"/>
<stop stop-color="#9853A1" offset="1"/>
</linearGradient>
<linearGradient id="d" x1="61.292" x2="58.859" y1="25.415" y2="53.228" gradientUnits="userSpaceOnUse">
<stop stop-color="#F8B7C9" offset=".098"/>
<stop stop-color="#F6A8BF" offset=".159"/>
<stop stop-color="#F491B0" offset=".278"/>
<stop stop-color="#F280A6" offset=".395"/>
<stop stop-color="#F276A0" offset=".506"/>
<stop stop-color="#F1729E" offset=".607"/>
</linearGradient>
<linearGradient id="c" x1="35.698" x2="58.572" y1="26.273" y2="42.294" gradientUnits="userSpaceOnUse">
<stop stop-color="#C29FCA" offset=".098"/>
<stop stop-color="#9853A1" offset=".583"/>
</linearGradient>
<linearGradient id="b" x1="74.83" x2="49.52" y1="47.142" y2="58.948" gradientUnits="userSpaceOnUse">
<stop stop-color="#F599B5" offset=".098"/>
<stop stop-color="#F38CAD" offset=".137"/>
<stop stop-color="#F16D9A" offset=".237"/>
<stop stop-color="#EF4F8C" offset=".336"/>
<stop stop-color="#EE3283" offset=".432"/>
<stop stop-color="#ED167D" offset=".524"/>
<stop stop-color="#ED037C" offset=".607"/>
</linearGradient>
<linearGradient id="a" x1="62.777" x2="39.903" y1="69.726" y2="53.704" gradientUnits="userSpaceOnUse">
<stop stop-color="#FAB383" offset=".098"/>
<stop stop-color="#F9A975" offset=".137"/>
<stop stop-color="#F79457" offset=".237"/>
<stop stop-color="#F5843D" offset=".336"/>
<stop stop-color="#F4792C" offset=".432"/>
<stop stop-color="#F37223" offset=".524"/>
<stop stop-color="#F37021" offset=".607"/>
</linearGradient>
<linearGradient id="r" x1="36.289" x2="59.162" y1="58.864" y2="74.885" gradientUnits="userSpaceOnUse">
<stop stop-color="#FAB383" offset=".098"/>
<stop stop-color="#F9A975" offset=".137"/>
<stop stop-color="#F79457" offset=".237"/>
<stop stop-color="#F5843D" offset=".336"/>
<stop stop-color="#F4792C" offset=".432"/>
<stop stop-color="#F37223" offset=".524"/>
<stop stop-color="#F37021" offset=".607"/>
</linearGradient>
<linearGradient id="q" x1="37.184" x2="39.617" y1="70.584" y2="42.77" gradientUnits="userSpaceOnUse">
<stop stop-color="#C4DF9B" offset=".098"/>
<stop stop-color="#BDDB8F" offset=".137"/>
<stop stop-color="#ACD372" offset=".237"/>
<stop stop-color="#9ECD59" offset=".336"/>
<stop stop-color="#95C949" offset=".432"/>
<stop stop-color="#8FC741" offset=".524"/>
<stop stop-color="#8DC63F" offset=".607"/>
</linearGradient>
<linearGradient id="p" x1="33.35" x2="30.918" y1="42.222" y2="70.035" gradientUnits="userSpaceOnUse">
<stop stop-color="#C4DF9B" offset=".098"/>
<stop stop-color="#BDDB8F" offset=".137"/>
<stop stop-color="#ACD372" offset=".237"/>
<stop stop-color="#9ECD59" offset=".336"/>
<stop stop-color="#95C949" offset=".432"/>
<stop stop-color="#8FC741" offset=".524"/>
<stop stop-color="#8DC63F" offset=".607"/>
</linearGradient>
<linearGradient id="o" x1="24.916" x2="50.968" y1="51.842" y2="39.689" gradientUnits="userSpaceOnUse">
<stop stop-color="#B0E1EE" offset=".049"/>
<stop stop-color="#57C8E1" offset=".337"/>
</linearGradient>
<linearGradient id="n" x1="46.235" x2="20.926" y1="31.483" y2="43.289" gradientUnits="userSpaceOnUse">
<stop stop-color="#B0E1EE" offset="0"/>
<stop stop-color="#57C8E1" offset=".38"/>
</linearGradient>
<linearGradient id="m" x1="62.187" x2="39.314" y1="37.134" y2="21.112" gradientUnits="userSpaceOnUse">
<stop stop-color="#C29FCA" offset=".098"/>
<stop stop-color="#9853A1" offset=".583"/>
</linearGradient>
<linearGradient id="l" x1="65.125" x2="67.557" y1="53.776" y2="25.963" gradientUnits="userSpaceOnUse">
<stop stop-color="#F8B7C9" offset=".098"/>
<stop stop-color="#F6A8BF" offset=".159"/>
<stop stop-color="#F491B0" offset=".278"/>
<stop stop-color="#F280A6" offset=".395"/>
<stop stop-color="#F276A0" offset=".506"/>
<stop stop-color="#F1729E" offset=".607"/>
</linearGradient>
<linearGradient id="k" x1="52.175" x2="77.485" y1="64.641" y2="52.835" gradientUnits="userSpaceOnUse">
<stop stop-color="#F599B5" offset=".098"/>
<stop stop-color="#F38CAD" offset=".137"/>
<stop stop-color="#F16D9A" offset=".237"/>
<stop stop-color="#EF4F8C" offset=".336"/>
<stop stop-color="#EE3283" offset=".432"/>
<stop stop-color="#ED167D" offset=".524"/>
<stop stop-color="#ED037C" offset=".607"/>
</linearGradient>
<radialGradient id="j" cx="0" cy="0" r="1" gradientTransform="matrix(12.147 0 0 12.143 55.851 33.1)" gradientUnits="userSpaceOnUse">
<stop stop-color="#B0E1EE" offset=".049"/>
<stop stop-color="#57C8E1" offset="1"/>
</radialGradient>
<clipPath id="t">
<path d="M0 0h368v96H0z" fill="#fff"/>
</clipPath>
</defs>
</svg>
