<?xml version="1.0" encoding="UTF-8"?>
<svg fill="none" viewBox="0 0 368 96" xmlns="http://www.w3.org/2000/svg">
<path d="m110.15 37.417h3.934v9.658l7.001-9.658h4.512l-5.901 7.634 6.885 13.3h-4.513l-4.975-9.888-2.951 3.759v6.13h-3.934v-20.935h-0.058zm19.091 0h7.058c5.265 0 7.868 1.966 7.868 6.246 0 2.718-1.388 4.568-3.876 5.262l4.628 9.369h-4.223l-4.049-8.501h-3.587v8.501h-3.876v-20.877h0.057zm7.29 9.137c2.488 0 3.702-0.867 3.702-2.891s-1.214-2.892-3.702-2.892h-3.413v5.783h3.413zm12.033-9.137h13.538v3.412h-9.661v4.916h7.058v3.354h-7.058v5.667h10.124v3.586h-14.001v-20.935zm17.935 0h13.19v3.412h-9.199v4.916h7.001v3.412h-7.001v9.195h-3.991v-20.935zm20.422 3.47h-5.496v-3.47h14.926v3.47h-5.496v17.465h-3.992v-17.465h0.058zm12.785-3.354h12.207v1.966h-9.893v6.94h7.347v1.966h-7.347v9.947h-2.314v-20.82zm21.81-0.347c4.918 0 8.215 4.048 8.215 10.698 0 6.651-3.297 10.757-8.215 10.757-4.917 0-8.215-4.106-8.215-10.757 0-6.65 3.298-10.698 8.215-10.698zm0 19.43c3.645 0 5.901-3.122 5.901-8.732s-2.256-8.732-5.901-8.732c-3.644 0-5.901 3.123-5.901 8.732 0 5.61 2.257 8.733 5.901 8.733zm11.687-19.083h5.843c5.611 0 8.331 1.503 8.331 5.493 0 2.719-1.447 4.511-4.339 5.321l4.859 9.947h-2.545l-4.571-9.426h-5.322v9.426h-2.256v-20.761zm2.256 1.908v7.518h3.471c4.165 0 6.075-1.04 6.075-3.759 0-3.065-1.794-3.759-5.959-3.759h-3.587zm16.488-1.908h12.265v1.966h-9.951v6.94h7.058v1.966h-7.058v7.98h10.471v1.967h-12.785v-20.82zm16.43 0h3.298l9.545 16.192v-16.192h2.141v20.761h-1.794l-11.049-18.39v18.39h-2.141v-20.761zm20.711 0h2.314v20.761h-2.314v-20.761zm8.042 0h3.297l9.546 16.192v-16.192h2.141v20.761h-1.794l-11.05-18.39v18.39h-2.14v-20.761zm32.686 18.506c-1.272 1.792-3.066 2.602-5.496 2.602-4.917 0-8.157-3.99-8.157-10.641 0-6.94 3.066-10.814 8.215-10.814 3.645 0 6.075 2.024 7.232 6.072l-2.372 0.462c-0.81-3.007-2.43-4.568-4.918-4.568-3.644 0-5.785 3.065-5.785 8.675 0 5.667 2.256 8.848 5.901 8.848 3.008 0 5.033-1.85 5.033-4.974v-1.446h-4.802v-1.965h7.174v10.063h-1.967l-0.058-2.313zm6.827-18.506h12.265v1.966h-9.951v6.94h7.058v1.966h-7.058v7.98h10.471v1.967h-12.785v-20.82zm16.43 0h3.298l9.546 16.192v-16.192h2.14v20.761h-1.793l-11.05-18.39v18.39h-2.141v-20.761z" fill="#000"/>
<path d="M58.43 55.171c-6.132 7.287-15.677 5.436-27.653-4.626-6.884-5.9-11.223-10.873-13.942-15.962-6.48-12.318-3.24-21.629-1.562-23.595.694-.81 1.562-.578 1.967-.173.405.404 7.347 8.906 7.868 9.484.52.578 1.388.752 2.198.289.752-.463 3.066-1.793 3.876-2.371.868-.52 2.025-.347 2.604.52.752 1.215 3.24 5.61 5.264 9.543" fill="url(#s)"/>
<path d="M52.992 45.918c3.24 8.964-.694 15.441-10.876 19.084-8.504 3.066-14.984 4.396-20.769 4.164C7.462 68.646.983 61.186.115 58.756c-.347-1.04.29-1.619.81-1.792.52-.174 11.397-1.909 12.15-2.082.751-.116 1.33-.81 1.33-1.735s-.058-3.528-.116-4.569c-.058-.983.694-1.908 1.736-1.966 1.446-.058 6.48 0 10.876.231" fill="url(#i)"/>
<path d="M49.406 43.605c9.372 1.677 13.016 8.328 11.107 18.969-1.62 8.906-3.76 15.267-6.884 20.125-7.405 11.74-17.067 13.648-19.612 13.185-1.042-.173-1.273-1.04-1.157-1.619.115-.52 3.992-10.814 4.28-11.566.232-.752-.057-1.62-.81-2.024-.751-.463-3.065-1.735-3.991-2.198-.868-.463-1.273-1.561-.81-2.487.637-1.272 3.24-5.61 5.612-9.31" fill="url(#h)"/>
<path d="M45.587 45.571c6.133-7.287 13.711-7.113 21.984-.116 6.885 5.841 11.282 10.988 14 16.135 6.48 12.26 3.298 21.63 1.62 23.596-.694.81-1.562.578-1.966.173-.405-.405-7.348-8.906-7.868-9.484-.521-.579-1.389-.752-2.199-.29-.752.463-3.066 1.793-3.876 2.372-.868.52-2.025.347-2.603-.52-.752-1.215-3.24-5.61-5.265-9.543" fill="url(#g)"/>
<path d="M45.298 49.735c-3.24-8.964.694-15.441 10.876-19.084 8.505-3.065 15.158-4.049 20.943-3.817 13.885.52 20.364 7.98 21.232 10.41.347 1.04-.29 1.619-.81 1.792-.52.174-11.397 1.909-12.149 2.082-.752.116-1.33.81-1.33 1.735s.057 3.528.115 4.569c.058.983-.694 1.908-1.736 1.966-1.446.058-6.479 0-10.876-.231" fill="url(#f)"/>
<path d="M49.174 52.28c-9.372-1.678-13.075-8.328-11.108-18.97 1.62-8.905 3.645-15.15 6.77-20.067C52.24 1.503 61.901-.405 64.446.058c1.042.173 1.273 1.04 1.157 1.62-.115.52-3.992 10.814-4.28 11.565-.232.752.057 1.62.81 2.024.751.463 3.065 1.735 3.991 2.198.868.463 1.273 1.561.81 2.487-.636 1.272-3.24 5.61-5.612 9.31" fill="url(#e)"/>
<path d="M56.522 53.031c-1.736-10.698 4.628-21.57 15.504-25.503 1.447-.52 3.182-.752 5.091-.752-5.843-.231-12.959.752-21.405 3.817-10.24 3.643-14.116 10.12-10.877 19.084" fill="url(#d)"/>
<path d="M57.215 44.241c-10.124-3.875-16.372-14.805-14.29-26.198.29-1.503.926-3.18 1.91-4.8C41.71 18.16 39.05 24.81 37.43 33.658c-1.91 10.699 1.735 17.291 11.108 18.968" fill="url(#c)"/>
<path d="M48.538 56.79c8.389-6.882 21-6.766 29.852.694 1.157.983 2.256 2.371 3.182 4.049-2.72-5.147-7.116-10.815-14-16.656-8.274-6.997-15.852-7.17-21.985.116" fill="url(#b)"/>
<path d="M41.248 51.759c10.125 3.875 16.373 14.805 14.29 26.198-.29 1.503-.925 3.18-1.909 4.8 3.124-4.916 5.785-11.567 7.405-20.415 1.91-10.699-1.736-17.291-11.108-18.968" fill="url(#a)"/>
<path d="M41.48 51.586l-.231.23c10.124 3.876 16.372 14.806 14.29 26.198-.29 1.504-.927 3.181-1.91 4.8.174-.23.29-.462.463-.693.81-1.504 1.388-2.95 1.62-4.338 2.082-11.45-4.108-22.38-14.232-26.197z" fill="url(#r)"/>
<path d="M42 42.969c1.736 10.698-4.628 21.57-15.504 25.503-1.447.52-3.182.752-5.091.752 5.843.231 12.959-.752 21.405-3.817 10.24-3.643 14.116-10.12 10.877-19.084" fill="url(#q)"/>
<path d="M42.29 43.084l-.29-.057c1.736 10.698-4.628 21.57-15.504 25.503-1.447.52-3.182.752-5.091.752h.81c1.677 0 3.24-.29 4.57-.752 10.876-3.932 17.182-14.805 15.504-25.446z" fill="url(#p)"/>
<path d="M49.868 39.325c-8.389 6.882-20.943 6.767-29.794-.694-1.157-.983-2.256-2.37-3.182-4.048 2.72 5.147 7.116 10.815 14 16.656 11.918 10.12 21.464 11.913 27.654 4.626" fill="url(#o)"/>
<path d="M49.984 39.614l-.116-.289c-8.389 6.824-20.943 6.767-29.794-.694-1.157-.983-2.256-2.37-3.182-4.048.116.232.29.463.405.752.868 1.446 1.851 2.718 2.95 3.585 8.736 7.46 21.348 7.519 29.737.694z" fill="url(#n)"/>
<path d="M56.985 44.414l.231-.23c-10.124-3.875-16.372-14.806-14.29-26.198.29-1.504.926-3.181 1.91-4.8-.174.23-.29.462-.463.694-.81 1.503-1.389 2.949-1.62 4.337-2.083 11.45 4.165 22.38 14.232 26.197z" fill="url(#m)"/>
<path d="M56.175 52.916l.289.058c-1.736-10.7 4.628-21.572 15.504-25.504 1.447-.52 3.182-.752 5.091-.752h-.81c-1.677 0-3.24.29-4.57.752-10.819 3.932-17.182 14.805-15.505 25.446z" fill="url(#l)"/>
<path d="M48.422 56.501l.058.29c8.388-6.825 21-6.767 29.852.693 1.157.983 2.256 2.371 3.181 4.049-.115-.232-.289-.463-.404-.752-.868-1.446-1.852-2.718-2.95-3.586-8.737-7.46-21.29-7.518-29.737-.694z" fill="url(#k)"/>
<path d="m58.662 55.576c-4.339 5.09-11.975 5.725-17.124 1.388-5.091-4.28-5.728-11.971-1.389-17.06 4.34-5.09 11.976-5.726 17.125-1.388 5.09 4.28 5.727 11.97 1.388 17.06z" fill="url(#j)"/>
<path d="m58.488 55.865c-4.339 5.09-11.975 5.725-17.124 1.388-5.091-4.337-5.727-11.971-1.389-17.118 4.34-5.09 11.976-5.725 17.125-1.388 5.09 4.337 5.727 11.971 1.388 17.118z" fill="#57C8E1"/>
<defs>
<linearGradient id="s" x1="25.594" x2="42.624" y1="46.01" y2="26.413" gradientUnits="userSpaceOnUse">
<stop stop-color="#0089B6" offset="0"/>
<stop stop-color="#0094BD" offset=".093"/>
<stop stop-color="#00A3C8" offset=".248"/>
<stop stop-color="#17B1D1" offset=".41"/>
<stop stop-color="#42BCD8" offset=".582"/>
<stop stop-color="#52C5DE" offset=".769"/>
<stop stop-color="#57C8E1" offset="1"/>
</linearGradient>
<linearGradient id="i" x1="32.114" x2="23.691" y1="68.472" y2="44.003" gradientUnits="userSpaceOnUse">
<stop stop-color="#46812B" offset="0"/>
<stop stop-color="#518C2F" offset=".074"/>
<stop stop-color="#66A035" offset=".232"/>
<stop stop-color="#76B039" offset=".398"/>
<stop stop-color="#82BB3C" offset=".573"/>
<stop stop-color="#89C33E" offset=".764"/>
<stop stop-color="#8DC63F" offset="1"/>
</linearGradient>
<linearGradient id="h" x1="58.5" x2="33.009" y1="73.039" y2="68.082" gradientUnits="userSpaceOnUse">
<stop stop-color="#C74A1B" offset="0"/>
<stop stop-color="#D7591E" offset=".197"/>
<stop stop-color="#E5651F" offset=".43"/>
<stop stop-color="#EE6C21" offset=".685"/>
<stop stop-color="#F37021" offset="1"/>
</linearGradient>
<linearGradient id="g" x1="75.61" x2="58.513" y1="52.405" y2="72.081" gradientUnits="userSpaceOnUse">
<stop stop-color="#950042" offset="0"/>
<stop stop-color="#AB0051" offset=".119"/>
<stop stop-color="#C20060" offset=".269"/>
<stop stop-color="#D3006C" offset=".427"/>
<stop stop-color="#E00174" offset=".594"/>
<stop stop-color="#E80279" offset=".775"/>
<stop stop-color="#ED037C" offset="1"/>
</linearGradient>
<linearGradient id="f" x1="66.235" x2="74.775" y1="27.189" y2="51.998" gradientUnits="userSpaceOnUse">
<stop stop-color="#9E0040" offset="0"/>
<stop stop-color="#AB184D" offset=".074"/>
<stop stop-color="#C33B67" offset=".232"/>
<stop stop-color="#D6537D" offset=".398"/>
<stop stop-color="#E4638E" offset=".573"/>
<stop stop-color="#ED6E99" offset=".764"/>
<stop stop-color="#F1729E" offset="1"/>
</linearGradient>
<linearGradient id="e" x1="40.069" x2="65.476" y1="22.919" y2="27.859" gradientUnits="userSpaceOnUse">
<stop stop-color="#570861" offset="0"/>
<stop stop-color="#61196B" offset=".074"/>
<stop stop-color="#732F7D" offset=".232"/>
<stop stop-color="#823F8C" offset=".398"/>
<stop stop-color="#8D4A96" offset=".573"/>
<stop stop-color="#94509D" offset=".764"/>
<stop stop-color="#9853A1" offset="1"/>
</linearGradient>
<linearGradient id="d" x1="61.291" x2="58.859" y1="25.415" y2="53.228" gradientUnits="userSpaceOnUse">
<stop stop-color="#F8B7C9" offset=".098"/>
<stop stop-color="#F6A8BF" offset=".159"/>
<stop stop-color="#F491B0" offset=".278"/>
<stop stop-color="#F280A6" offset=".395"/>
<stop stop-color="#F276A0" offset=".506"/>
<stop stop-color="#F1729E" offset=".607"/>
</linearGradient>
<linearGradient id="c" x1="35.698" x2="58.571" y1="26.273" y2="42.294" gradientUnits="userSpaceOnUse">
<stop stop-color="#C29FCA" offset=".098"/>
<stop stop-color="#9853A1" offset=".583"/>
</linearGradient>
<linearGradient id="b" x1="74.83" x2="49.52" y1="47.142" y2="58.948" gradientUnits="userSpaceOnUse">
<stop stop-color="#F599B5" offset=".098"/>
<stop stop-color="#F38CAD" offset=".137"/>
<stop stop-color="#F16D9A" offset=".237"/>
<stop stop-color="#EF4F8C" offset=".336"/>
<stop stop-color="#EE3283" offset=".432"/>
<stop stop-color="#ED167D" offset=".524"/>
<stop stop-color="#ED037C" offset=".607"/>
</linearGradient>
<linearGradient id="a" x1="62.777" x2="39.903" y1="69.726" y2="53.704" gradientUnits="userSpaceOnUse">
<stop stop-color="#FAB383" offset=".098"/>
<stop stop-color="#F9A975" offset=".137"/>
<stop stop-color="#F79457" offset=".237"/>
<stop stop-color="#F5843D" offset=".336"/>
<stop stop-color="#F4792C" offset=".432"/>
<stop stop-color="#F37223" offset=".524"/>
<stop stop-color="#F37021" offset=".607"/>
</linearGradient>
<linearGradient id="r" x1="36.288" x2="59.161" y1="58.864" y2="74.886" gradientUnits="userSpaceOnUse">
<stop stop-color="#FAB383" offset=".098"/>
<stop stop-color="#F9A975" offset=".137"/>
<stop stop-color="#F79457" offset=".237"/>
<stop stop-color="#F5843D" offset=".336"/>
<stop stop-color="#F4792C" offset=".432"/>
<stop stop-color="#F37223" offset=".524"/>
<stop stop-color="#F37021" offset=".607"/>
</linearGradient>
<linearGradient id="q" x1="37.184" x2="39.616" y1="70.584" y2="42.77" gradientUnits="userSpaceOnUse">
<stop stop-color="#C4DF9B" offset=".098"/>
<stop stop-color="#BDDB8F" offset=".137"/>
<stop stop-color="#ACD372" offset=".237"/>
<stop stop-color="#9ECD59" offset=".336"/>
<stop stop-color="#95C949" offset=".432"/>
<stop stop-color="#8FC741" offset=".524"/>
<stop stop-color="#8DC63F" offset=".607"/>
</linearGradient>
<linearGradient id="p" x1="33.349" x2="30.917" y1="42.222" y2="70.035" gradientUnits="userSpaceOnUse">
<stop stop-color="#C4DF9B" offset=".098"/>
<stop stop-color="#BDDB8F" offset=".137"/>
<stop stop-color="#ACD372" offset=".237"/>
<stop stop-color="#9ECD59" offset=".336"/>
<stop stop-color="#95C949" offset=".432"/>
<stop stop-color="#8FC741" offset=".524"/>
<stop stop-color="#8DC63F" offset=".607"/>
</linearGradient>
<linearGradient id="o" x1="24.915" x2="50.967" y1="51.842" y2="39.689" gradientUnits="userSpaceOnUse">
<stop stop-color="#B0E1EE" offset=".049"/>
<stop stop-color="#57C8E1" offset=".337"/>
</linearGradient>
<linearGradient id="n" x1="46.235" x2="20.925" y1="31.483" y2="43.289" gradientUnits="userSpaceOnUse">
<stop stop-color="#B0E1EE" offset="0"/>
<stop stop-color="#57C8E1" offset=".38"/>
</linearGradient>
<linearGradient id="m" x1="62.186" x2="39.313" y1="37.134" y2="21.112" gradientUnits="userSpaceOnUse">
<stop stop-color="#C29FCA" offset=".098"/>
<stop stop-color="#9853A1" offset=".583"/>
</linearGradient>
<linearGradient id="l" x1="65.124" x2="67.556" y1="53.776" y2="25.963" gradientUnits="userSpaceOnUse">
<stop stop-color="#F8B7C9" offset=".098"/>
<stop stop-color="#F6A8BF" offset=".159"/>
<stop stop-color="#F491B0" offset=".278"/>
<stop stop-color="#F280A6" offset=".395"/>
<stop stop-color="#F276A0" offset=".506"/>
<stop stop-color="#F1729E" offset=".607"/>
</linearGradient>
<linearGradient id="k" x1="52.175" x2="77.485" y1="64.641" y2="52.835" gradientUnits="userSpaceOnUse">
<stop stop-color="#F599B5" offset=".098"/>
<stop stop-color="#F38CAD" offset=".137"/>
<stop stop-color="#F16D9A" offset=".237"/>
<stop stop-color="#EF4F8C" offset=".336"/>
<stop stop-color="#EE3283" offset=".432"/>
<stop stop-color="#ED167D" offset=".524"/>
<stop stop-color="#ED037C" offset=".607"/>
</linearGradient>
<radialGradient id="j" cx="0" cy="0" r="1" gradientTransform="matrix(12.147 0 0 12.143 55.85 33.1)" gradientUnits="userSpaceOnUse">
<stop stop-color="#B0E1EE" offset=".049"/>
<stop stop-color="#57C8E1" offset="1"/>
</radialGradient>
</defs>
</svg>
